<svg width="80" height="80" viewBox="0 0 80 80" fill="none" xmlns="http://www.w3.org/2000/svg">
<rect x="1" y="1" width="78" height="78" rx="39" fill="white"/>
<path d="M40 59.9943C51.0457 59.9943 60 51.0425 60 39.9999C60 28.9572 51.0457 20.0054 40 20.0054C28.9543 20.0054 20 28.9572 20 39.9999C20 51.0425 28.9543 59.9943 40 59.9943Z" fill="url(#paint0_linear_211_1441)"/>
<path d="M40.05 59.2299C50.6588 59.2299 59.2589 50.6322 59.2589 40.0263C59.2589 29.4205 50.6588 20.8228 40.05 20.8228C29.4413 20.8228 20.8412 29.4205 20.8412 40.0263C20.8412 50.6322 29.4413 59.2299 40.05 59.2299Z" fill="url(#paint1_linear_211_1441)"/>
<path d="M39.8812 56.8834C49.0539 56.8834 56.4899 49.4495 56.4899 40.2794C56.4899 31.1092 49.0539 23.6753 39.8812 23.6753C30.7085 23.6753 23.2726 31.1092 23.2726 40.2794C23.2726 49.4495 30.7085 56.8834 39.8812 56.8834Z" fill="url(#paint2_linear_211_1441)"/>
<path d="M39.905 55.5571C48.4573 55.5571 55.3903 48.6261 55.3903 40.0762C55.3903 31.5263 48.4573 24.5952 39.905 24.5952C31.3528 24.5952 24.4198 31.5263 24.4198 40.0762C24.4198 48.6261 31.3528 55.5571 39.905 55.5571Z" fill="url(#paint3_linear_211_1441)"/>
<path d="M48.7421 33.2373H30.6778C29.316 33.2373 28.212 34.3409 28.212 35.7023V45.5994C28.212 46.9608 29.316 48.0644 30.6778 48.0644H48.7421C50.1039 48.0644 51.2078 46.9608 51.2078 45.5994V35.7023C51.2078 34.3409 50.1039 33.2373 48.7421 33.2373Z" fill="url(#paint4_linear_211_1441)"/>
<path d="M40.2847 35.3916H30.4984V37.0842H40.2847V35.3916Z" fill="white"/>
<path d="M49.3618 44.2788H44.1033V45.9661H49.3618V44.2788Z" fill="white"/>
<path d="M33.7763 39.4253H30.4984V41.6082H33.7763V39.4253Z" fill="white"/>
<path d="M48.2067 39.7624C48.2181 39.7495 48.2321 39.7392 48.2478 39.7321C48.2635 39.725 48.2805 39.7214 48.2977 39.7214C48.3149 39.7214 48.3319 39.725 48.3476 39.7321C48.3633 39.7392 48.3773 39.7495 48.3887 39.7624C48.4711 39.8557 48.5395 39.9605 48.5917 40.0735C48.6561 40.2184 48.6893 40.3751 48.6893 40.5336C48.6893 40.6921 48.6561 40.8488 48.5917 40.9936C48.5402 41.107 48.4717 41.2119 48.3887 41.3047C48.3771 41.3173 48.363 41.3273 48.3474 41.3341C48.3317 41.341 48.3148 41.3445 48.2977 41.3445C48.2806 41.3445 48.2637 41.341 48.2481 41.3341C48.2324 41.3273 48.2183 41.3173 48.2067 41.3047C48.1858 41.2811 48.1742 41.2506 48.1742 41.219C48.1742 41.1875 48.1858 41.157 48.2067 41.1334C48.2752 41.0549 48.3304 40.9659 48.3702 40.8697C48.4188 40.7597 48.4439 40.6407 48.4439 40.5204C48.4439 40.4001 48.4188 40.2811 48.3702 40.1711C48.3304 40.0749 48.2752 39.9859 48.2067 39.9074C48.1919 39.8862 48.1839 39.8609 48.1839 39.8349C48.1839 39.809 48.1919 39.7837 48.2067 39.7624ZM48.6788 39.2905C48.6906 39.2783 48.7047 39.2686 48.7203 39.262C48.736 39.2554 48.7528 39.252 48.7698 39.252C48.7867 39.252 48.8035 39.2554 48.8192 39.262C48.8348 39.2686 48.8489 39.2783 48.8607 39.2905C48.9968 39.4427 49.1097 39.6142 49.1957 39.7993C49.3041 40.0303 49.36 40.2824 49.3592 40.5375C49.3602 40.7918 49.3043 41.0432 49.1957 41.2731C49.1103 41.4586 48.9974 41.6301 48.8607 41.7819C48.8491 41.7945 48.8351 41.8045 48.8194 41.8113C48.8037 41.8181 48.7868 41.8217 48.7698 41.8217C48.7527 41.8217 48.7358 41.8181 48.7201 41.8113C48.7044 41.8045 48.6904 41.7945 48.6788 41.7819C48.658 41.7587 48.6465 41.7287 48.6465 41.6976C48.6465 41.6664 48.658 41.6364 48.6788 41.6132C48.7982 41.4762 48.8984 41.3237 48.9768 41.1597C49.0708 40.964 49.1186 40.7494 49.1165 40.5323C49.1192 40.3151 49.0713 40.1003 48.9768 39.9048C48.8984 39.74 48.7982 39.5866 48.6788 39.4487C48.6598 39.4267 48.6494 39.3986 48.6494 39.3696C48.6494 39.3406 48.6598 39.3125 48.6788 39.2905ZM47.7452 40.8539C47.7585 40.8675 47.7748 40.8778 47.7927 40.8841C47.8107 40.8903 47.8298 40.8924 47.8487 40.8901C47.8675 40.8878 47.8856 40.8812 47.9015 40.8708C47.9174 40.8604 47.9307 40.8465 47.9404 40.8302C47.9525 40.8099 47.9631 40.7888 47.972 40.7669C48.0033 40.6949 48.0195 40.6173 48.0195 40.5389C48.0195 40.4604 48.0033 40.3828 47.972 40.3108C47.972 40.2897 47.9509 40.2686 47.9404 40.2475C47.9304 40.2316 47.9169 40.2181 47.901 40.208C47.8851 40.1979 47.8672 40.1915 47.8485 40.1892C47.8298 40.1869 47.8108 40.1889 47.7929 40.1948C47.7751 40.2008 47.7588 40.2107 47.7452 40.2238L47.4288 40.5402L47.7452 40.8539Z" fill="white"/>
<path d="M40.0132 53.1317C41.7667 53.1317 43.1883 51.7105 43.1883 49.9574C43.1883 48.2044 41.7667 46.7832 40.0132 46.7832C38.2596 46.7832 36.8381 48.2044 36.8381 49.9574C36.8381 51.7105 38.2596 53.1317 40.0132 53.1317Z" fill="url(#paint5_linear_211_1441)"/>
<path d="M40.0132 52.3252C41.308 52.3252 42.3576 51.2759 42.3576 49.9815C42.3576 48.687 41.308 47.6377 40.0132 47.6377C38.7184 47.6377 37.6688 48.687 37.6688 49.9815C37.6688 51.2759 38.7184 52.3252 40.0132 52.3252Z" fill="white"/>
<path d="M39.7784 51.3837L41.8064 49.3748C41.8394 49.3431 41.8657 49.305 41.8836 49.2629C41.9016 49.2207 41.9108 49.1754 41.9108 49.1296C41.9108 49.0838 41.9016 49.0385 41.8836 48.9964C41.8657 48.9542 41.8394 48.9162 41.8064 48.8844C41.744 48.8245 41.6608 48.791 41.5743 48.791C41.4878 48.791 41.4046 48.8245 41.3422 48.8844L39.7942 50.4135C39.763 50.4456 39.7257 50.4711 39.6845 50.4884C39.6433 50.5058 39.599 50.5148 39.5543 50.5148C39.5095 50.5148 39.4652 50.5058 39.424 50.4884C39.3828 50.4711 39.3455 50.4456 39.3143 50.4135L38.7315 49.8072C38.7003 49.7755 38.6632 49.7504 38.6222 49.7332C38.5812 49.7161 38.5372 49.7072 38.4928 49.7072C38.4484 49.7072 38.4044 49.7161 38.3634 49.7332C38.3225 49.7504 38.2853 49.7755 38.2542 49.8072L38.2304 49.8283C38.1987 49.8596 38.1735 49.897 38.1563 49.9382C38.1391 49.9794 38.1302 50.0235 38.1302 50.0682C38.1302 50.1128 38.1391 50.157 38.1563 50.1982C38.1735 50.2393 38.1987 50.2767 38.2304 50.3081L39.3143 51.3837C39.3773 51.4425 39.4602 51.4752 39.5463 51.4752C39.6325 51.4752 39.7154 51.4425 39.7784 51.3837Z" fill="url(#paint6_linear_211_1441)"/>
<path opacity="0.2" d="M39.7099 51.6711C41.0309 51.6711 42.1017 50.6005 42.1017 49.2799C42.1017 47.9593 41.0309 46.8887 39.7099 46.8887C38.3889 46.8887 37.318 47.9593 37.318 49.2799C37.318 50.6005 38.3889 51.6711 39.7099 51.6711Z" fill="white"/>
<path opacity="0.2" d="M41.7375 43.5408C47.6477 40.763 50.6173 34.6379 48.3704 29.8599C46.1235 25.082 39.5109 23.4606 33.6008 26.2384C27.6906 29.0162 24.721 35.1413 26.9679 39.9193C29.2148 44.6972 35.8274 46.3186 41.7375 43.5408Z" fill="white"/>
<rect x="1" y="1" width="78" height="78" rx="39" stroke="#C4C1DD" stroke-width="2"/>
<defs>
<linearGradient id="paint0_linear_211_1441" x1="24.6756" y1="27.005" x2="53.9595" y2="51.8505" gradientUnits="userSpaceOnUse">
<stop stop-color="#F9F9F9"/>
<stop offset="0.41" stop-color="#D5D5D5"/>
<stop offset="1" stop-color="#9D9D9D"/>
</linearGradient>
<linearGradient id="paint1_linear_211_1441" x1="29.9709" y1="26.1799" x2="51.7484" y2="56.1141" gradientUnits="userSpaceOnUse">
<stop stop-color="#F9F9F9"/>
<stop offset="0.18" stop-color="#F1F1F1"/>
<stop offset="0.44" stop-color="#DCDCDC"/>
<stop offset="0.77" stop-color="#B9B9B9"/>
<stop offset="1" stop-color="#9D9D9D"/>
</linearGradient>
<linearGradient id="paint2_linear_211_1441" x1="52.7346" y1="54.0335" x2="29.0391" y2="28.6621" gradientUnits="userSpaceOnUse">
<stop stop-color="#F9F9F9"/>
<stop offset="0.18" stop-color="#F1F1F1"/>
<stop offset="0.44" stop-color="#DCDCDC"/>
<stop offset="0.77" stop-color="#B9B9B9"/>
<stop offset="1" stop-color="#9D9D9D"/>
</linearGradient>
<linearGradient id="paint3_linear_211_1441" x1="30.5406" y1="30.7143" x2="50.8462" y2="51.0281" gradientUnits="userSpaceOnUse">
<stop stop-color="#91D1F4"/>
<stop offset="0.16" stop-color="#99D4F5"/>
<stop offset="0.39" stop-color="#AEDDF7"/>
<stop offset="0.68" stop-color="#D1ECFA"/>
<stop offset="1" stop-color="white"/>
</linearGradient>
<linearGradient id="paint4_linear_211_1441" x1="52.4262" y1="40.6509" x2="28.4652" y2="40.6509" gradientUnits="userSpaceOnUse">
<stop stop-color="#003AFF"/>
<stop offset="0.11" stop-color="#0045FF"/>
<stop offset="0.49" stop-color="#0068FF"/>
<stop offset="0.8" stop-color="#007DFF"/>
<stop offset="1" stop-color="#0085FF"/>
</linearGradient>
<linearGradient id="paint5_linear_211_1441" x1="36.2816" y1="46.2269" x2="42.5958" y2="52.5428" gradientUnits="userSpaceOnUse">
<stop stop-color="#0085FF"/>
<stop offset="0.2" stop-color="#007DFF"/>
<stop offset="0.51" stop-color="#0068FF"/>
<stop offset="0.89" stop-color="#0045FF"/>
<stop offset="1" stop-color="#003AFF"/>
</linearGradient>
<linearGradient id="paint6_linear_211_1441" x1="39.28" y1="48.8185" x2="40.8275" y2="50.4772" gradientUnits="userSpaceOnUse">
<stop stop-color="#0085FF"/>
<stop offset="0.2" stop-color="#007DFF"/>
<stop offset="0.51" stop-color="#0068FF"/>
<stop offset="0.89" stop-color="#0045FF"/>
<stop offset="1" stop-color="#003AFF"/>
</linearGradient>
</defs>
</svg>
