<svg width="80" height="80" viewBox="0 0 80 80" fill="none" xmlns="http://www.w3.org/2000/svg">
<rect x="1" y="1" width="78" height="78" rx="39" fill="white"/>
<path d="M40 59.9943C51.0457 59.9943 60 51.0425 60 39.9999C60 28.9572 51.0457 20.0054 40 20.0054C28.9543 20.0054 20 28.9572 20 39.9999C20 51.0425 28.9543 59.9943 40 59.9943Z" fill="url(#paint0_linear_211_1454)"/>
<path d="M40.0501 59.2299C50.6589 59.2299 59.259 50.6322 59.259 40.0263C59.259 29.4205 50.6589 20.8228 40.0501 20.8228C29.4413 20.8228 20.8412 29.4205 20.8412 40.0263C20.8412 50.6322 29.4413 59.2299 40.0501 59.2299Z" fill="url(#paint1_linear_211_1454)"/>
<path d="M39.8814 56.8805C49.0541 56.8805 56.49 49.4466 56.49 40.2764C56.49 31.1063 49.0541 23.6724 39.8814 23.6724C30.7087 23.6724 23.2727 31.1063 23.2727 40.2764C23.2727 49.4466 30.7087 56.8805 39.8814 56.8805Z" fill="url(#paint2_linear_211_1454)"/>
<path d="M39.9024 55.5571C48.4547 55.5571 55.3876 48.6261 55.3876 40.0762C55.3876 31.5263 48.4547 24.5952 39.9024 24.5952C31.3502 24.5952 24.4172 31.5263 24.4172 40.0762C24.4172 48.6261 31.3502 55.5571 39.9024 55.5571Z" fill="url(#paint3_linear_211_1454)"/>
<path d="M35.9283 52.0086L34.3908 49.3722C34.3305 49.2696 34.2493 49.1807 34.1526 49.1112C34.0559 49.0417 33.9457 48.9933 33.8291 48.9689L30.7542 48.3388C30.5461 48.2966 30.3615 48.1778 30.237 48.0059C30.1124 47.834 30.057 47.6216 30.0817 47.4108L30.4246 44.4554C30.4378 44.3395 30.427 44.2221 30.393 44.1105C30.359 43.999 30.3024 43.8956 30.2268 43.8068L28.2674 41.5237C28.1345 41.3703 28.0614 41.1742 28.0614 40.9713C28.0614 40.7685 28.1345 40.5724 28.2674 40.419L30.2215 38.1596C30.2975 38.0705 30.3546 37.9667 30.389 37.8547C30.4235 37.7427 30.4347 37.6249 30.4219 37.5084L30.0817 34.5609C30.057 34.3501 30.1124 34.1377 30.237 33.9658C30.3615 33.7939 30.5461 33.6751 30.7542 33.6329L33.8265 33.0028C33.944 32.9793 34.0552 32.9308 34.1526 32.8608C34.2499 32.7908 34.3311 32.7008 34.3908 32.5968L35.9283 29.9472C36.0338 29.7641 36.2042 29.627 36.4057 29.5631C36.6073 29.4992 36.8255 29.513 37.0174 29.6019L39.6941 30.841C39.8059 30.8918 39.9273 30.9181 40.0501 30.9181C40.1729 30.9181 40.2943 30.8918 40.4061 30.841L43.0854 29.5992C43.2765 29.5113 43.4934 29.4974 43.6941 29.5603C43.8949 29.6231 44.0651 29.7582 44.1719 29.9393L45.7357 32.6021C45.7961 32.704 45.8769 32.7922 45.9732 32.8612C46.0694 32.9302 46.1789 32.9784 46.2948 33.0028L49.346 33.6329C49.5531 33.6757 49.7367 33.7943 49.8606 33.9656C49.9846 34.1368 50.0399 34.3483 50.0158 34.5583L49.6756 37.5137C49.6616 37.6302 49.6722 37.7484 49.7067 37.8606C49.7412 37.9727 49.7989 38.0764 49.876 38.1649L51.8302 40.4243C51.963 40.5777 52.0362 40.7737 52.0362 40.9766C52.0362 41.1795 51.963 41.3756 51.8302 41.5289L49.8734 43.8121C49.7972 43.9005 49.7403 44.0039 49.7062 44.1155C49.6722 44.2272 49.6618 44.3447 49.6756 44.4606L50.0158 47.4187C50.0406 47.6288 49.9854 47.8405 49.8614 48.0119C49.7373 48.1833 49.5534 48.3019 49.346 48.344L46.2948 48.9742C46.1791 48.9981 46.0696 49.0459 45.9734 49.1144C45.8772 49.1829 45.7962 49.2707 45.7357 49.3722L44.1719 52.0086C44.0648 52.1887 43.8946 52.3226 43.6944 52.3844C43.4942 52.4463 43.2781 52.4317 43.0881 52.3435L40.4061 51.1044C40.2946 51.0523 40.1731 51.0253 40.0501 51.0253C39.9271 51.0253 39.8055 51.0523 39.6941 51.1044L37.0148 52.3435C36.8243 52.4318 36.6078 52.4465 36.4072 52.3847C36.2065 52.3228 36.0359 52.1889 35.9283 52.0086Z" fill="url(#paint4_linear_211_1454)"/>
<path d="M37.6978 50.2079L39.7257 49.3564C39.9335 49.2708 40.1667 49.2708 40.3745 49.3564L42.4842 50.2158C42.6652 50.289 42.866 50.2978 43.0527 50.2407C43.2395 50.1836 43.4009 50.064 43.51 49.9021L44.789 47.9564C44.9061 47.7848 45.0812 47.6612 45.2822 47.6084L47.5237 47.0337C47.72 46.9836 47.8918 46.8648 48.0079 46.6989C48.1241 46.533 48.1768 46.3309 48.1566 46.1294L47.9325 43.9069C47.9207 43.7909 47.9329 43.6737 47.9683 43.5626C48.0037 43.4515 48.0615 43.3488 48.1382 43.261L49.6624 41.5315C49.7969 41.3774 49.871 41.1798 49.871 40.9752C49.871 40.7707 49.7969 40.5731 49.6624 40.419L48.1276 38.6341C48.0564 38.5438 48.0042 38.44 47.9743 38.329C47.9444 38.218 47.9373 38.102 47.9536 37.9882L48.1777 35.7736C48.1981 35.5696 48.1439 35.365 48.0251 35.1978C47.9064 35.0306 47.7311 34.9121 47.5316 34.8641L45.3085 34.3368C45.1054 34.2872 44.9273 34.1654 44.8075 33.994L43.4599 32.0405C43.3484 31.8763 43.1825 31.7567 42.9915 31.7027C42.8005 31.6487 42.5966 31.6638 42.4156 31.7452L40.3639 32.5994C40.2615 32.6418 40.1517 32.6636 40.0409 32.6636C39.93 32.6636 39.8202 32.6418 39.7178 32.5994L37.6081 31.7399C37.4312 31.6738 37.2371 31.6688 37.057 31.7256C36.8768 31.7825 36.7209 31.8979 36.6139 32.0537L35.2954 33.9914C35.1762 34.1673 34.9956 34.2924 34.789 34.342L32.5712 34.8693C32.3721 34.9179 32.1971 35.0365 32.0784 35.2036C31.9598 35.3707 31.9053 35.5749 31.9251 35.7789L32.1493 37.9935C32.161 38.1078 32.1492 38.2234 32.1148 38.3331C32.0803 38.4428 32.0238 38.5443 31.9488 38.6315L30.4114 40.4163C30.2769 40.5705 30.2028 40.7681 30.2028 40.9726C30.2028 41.1771 30.2769 41.3747 30.4114 41.5289L31.9488 43.261C32.0261 43.3481 32.0844 43.4502 32.1203 43.5609C32.1561 43.6716 32.1687 43.7885 32.1572 43.9043L31.933 46.1716C31.9122 46.3754 31.9663 46.5799 32.0852 46.7467C32.2041 46.9136 32.3796 47.0316 32.5791 47.0785L34.8049 47.6058C35.0052 47.657 35.1797 47.7799 35.2954 47.9512L36.6693 49.9127C36.7802 50.0731 36.9432 50.1903 37.1307 50.2441C37.3183 50.2979 37.5186 50.2851 37.6978 50.2079Z" fill="white"/>
<path d="M39.4489 44.0888L44.5412 39.0427C44.623 38.9619 44.6874 38.8652 44.7306 38.7586C44.7738 38.652 44.7948 38.5377 44.7923 38.4228C44.7899 38.3078 44.764 38.1945 44.7163 38.0899C44.6686 37.9852 44.6 37.8914 44.5148 37.8141C44.3545 37.668 44.1442 37.589 43.9273 37.5934C43.7104 37.5979 43.5034 37.6854 43.3492 37.8379L39.4621 41.6791C39.3823 41.7579 39.2876 41.82 39.1836 41.8619C39.0796 41.9038 38.9683 41.9246 38.8562 41.9231C38.7441 41.9217 38.6333 41.8979 38.5305 41.8533C38.4276 41.8087 38.3346 41.7441 38.2569 41.6633L36.7986 40.1447C36.721 40.0639 36.6283 39.9991 36.5256 39.9543C36.4229 39.9094 36.3124 39.8853 36.2004 39.8833C36.0883 39.8814 35.977 39.9016 35.8729 39.9428C35.7687 39.9841 35.6737 40.0455 35.5934 40.1236L35.538 40.179C35.4581 40.258 35.3947 40.352 35.3514 40.4556C35.3081 40.5592 35.2858 40.6704 35.2858 40.7827C35.2858 40.895 35.3081 41.0062 35.3514 41.1099C35.3947 41.2135 35.4581 41.3075 35.538 41.3865L38.2595 44.0862C38.4176 44.2428 38.6311 44.331 38.8537 44.3315C39.0763 44.332 39.2901 44.2448 39.4489 44.0888Z" fill="url(#paint5_linear_211_1454)"/>
<path opacity="0.2" d="M41.7309 43.8909C47.641 41.1131 50.6107 34.988 48.3637 30.21C46.1168 25.4321 39.5043 23.8107 33.5941 26.5885C27.684 29.3663 24.7144 35.4914 26.9613 40.2694C29.2082 45.0473 35.8208 46.6687 41.7309 43.8909Z" fill="white"/>
<rect x="1" y="1" width="78" height="78" rx="39" stroke="#C4C1DD" stroke-width="2"/>
<defs>
<linearGradient id="paint0_linear_211_1454" x1="24.6756" y1="27.0024" x2="53.9568" y2="51.8505" gradientUnits="userSpaceOnUse">
<stop stop-color="#F9F9F9"/>
<stop offset="0.41" stop-color="#D5D5D5"/>
<stop offset="1" stop-color="#9D9D9D"/>
</linearGradient>
<linearGradient id="paint1_linear_211_1454" x1="29.9684" y1="26.1799" x2="51.7485" y2="56.1141" gradientUnits="userSpaceOnUse">
<stop stop-color="#F9F9F9"/>
<stop offset="0.18" stop-color="#F1F1F1"/>
<stop offset="0.44" stop-color="#DCDCDC"/>
<stop offset="0.77" stop-color="#B9B9B9"/>
<stop offset="1" stop-color="#9D9D9D"/>
</linearGradient>
<linearGradient id="paint2_linear_211_1454" x1="52.7347" y1="54.0306" x2="29.0392" y2="28.6618" gradientUnits="userSpaceOnUse">
<stop stop-color="#F9F9F9"/>
<stop offset="0.18" stop-color="#F1F1F1"/>
<stop offset="0.44" stop-color="#DCDCDC"/>
<stop offset="0.77" stop-color="#B9B9B9"/>
<stop offset="1" stop-color="#9D9D9D"/>
</linearGradient>
<linearGradient id="paint3_linear_211_1454" x1="30.5406" y1="30.7143" x2="50.8462" y2="51.0281" gradientUnits="userSpaceOnUse">
<stop stop-color="#91D1F4"/>
<stop offset="0.16" stop-color="#99D4F5"/>
<stop offset="0.39" stop-color="#AEDDF7"/>
<stop offset="0.68" stop-color="#D1ECFA"/>
<stop offset="1" stop-color="white"/>
</linearGradient>
<linearGradient id="paint4_linear_211_1454" x1="31.8644" y1="32.2066" x2="48.5051" y2="50.0728" gradientUnits="userSpaceOnUse">
<stop stop-color="#0085FF"/>
<stop offset="0.2" stop-color="#007DFF"/>
<stop offset="0.51" stop-color="#0068FF"/>
<stop offset="0.89" stop-color="#0045FF"/>
<stop offset="1" stop-color="#003AFF"/>
</linearGradient>
<linearGradient id="paint5_linear_211_1454" x1="38.2015" y1="37.6454" x2="42.0849" y2="41.8146" gradientUnits="userSpaceOnUse">
<stop stop-color="#0085FF"/>
<stop offset="0.2" stop-color="#007DFF"/>
<stop offset="0.51" stop-color="#0068FF"/>
<stop offset="0.89" stop-color="#0045FF"/>
<stop offset="1" stop-color="#003AFF"/>
</linearGradient>
</defs>
</svg>
