<svg width="80" height="80" viewBox="0 0 80 80" fill="none" xmlns="http://www.w3.org/2000/svg">
<rect x="1" y="1" width="78" height="78" rx="39" fill="white"/>
<path d="M40 60C51.0488 60 60.0055 51.0457 60.0055 40C60.0055 28.9543 51.0488 20 40 20C28.9513 20 19.9945 28.9543 19.9945 40C19.9945 51.0457 28.9513 60 40 60Z" fill="url(#paint0_linear_211_1467)"/>
<path d="M40.0501 59.2351C50.6618 59.2351 59.2643 50.635 59.2643 40.0262C59.2643 29.4175 50.6618 20.8174 40.0501 20.8174C29.4384 20.8174 20.8359 29.4175 20.8359 40.0262C20.8359 50.635 29.4384 59.2351 40.0501 59.2351Z" fill="url(#paint1_linear_211_1467)"/>
<path d="M39.8812 56.8882C49.0565 56.8882 56.4945 49.4522 56.4945 40.2795C56.4945 31.1068 49.0565 23.6709 39.8812 23.6709C30.706 23.6709 23.268 31.1068 23.268 40.2795C23.268 49.4522 30.706 56.8882 39.8812 56.8882Z" fill="url(#paint2_linear_211_1467)"/>
<path d="M39.9024 55.5618C48.457 55.5618 55.3919 48.6288 55.3919 40.0765C55.3919 31.5243 48.457 24.5913 39.9024 24.5913C31.3478 24.5913 24.4129 31.5243 24.4129 40.0765C24.4129 48.6288 31.3478 55.5618 39.9024 55.5618Z" fill="url(#paint3_linear_211_1467)"/>
<path d="M39.7072 26.9067C38.8625 26.9067 38.0368 27.1571 37.3345 27.6263C36.6322 28.0954 36.0848 28.7622 35.7615 29.5424C35.4383 30.3225 35.3537 31.181 35.5185 32.0092C35.6833 32.8374 36.0901 33.5982 36.6873 34.1953C37.2846 34.7924 38.0456 35.199 38.874 35.3637C39.7024 35.5285 40.5611 35.4439 41.3415 35.1208C42.1218 34.7976 42.7888 34.2504 43.2581 33.5483C43.7274 32.8462 43.9779 32.0207 43.9779 31.1763C43.9782 30.6155 43.868 30.0601 43.6535 29.542C43.439 29.0238 43.1244 28.553 42.7278 28.1565C42.3311 27.7599 41.8602 27.4455 41.3419 27.231C40.8236 27.0166 40.2681 26.9064 39.7072 26.9067ZM39.7256 33.9452C39.1772 33.9452 38.6411 33.7826 38.1851 33.478C37.7291 33.1733 37.3738 32.7403 37.164 32.2337C36.9543 31.7271 36.8995 31.1696 37.0067 30.6319C37.1139 30.0942 37.3782 29.6004 37.7662 29.2129C38.1542 28.8253 38.6484 28.5616 39.1864 28.4549C39.7243 28.3483 40.2819 28.4035 40.7884 28.6137C41.2949 28.8239 41.7277 29.1796 42.0321 29.6357C42.3364 30.0918 42.4985 30.628 42.498 31.1763C42.4994 31.5411 42.4287 31.9027 42.29 32.2401C42.1513 32.5776 41.9473 32.8844 41.6897 33.1429C41.4322 33.4014 41.1261 33.6065 40.789 33.7464C40.452 33.8864 40.0906 33.9584 39.7256 33.9584V33.9452Z" fill="url(#paint4_linear_211_1467)"/>
<path d="M47.3306 30.7646H32.0864C31.5794 30.7646 31.1684 31.1755 31.1684 31.6824V47.9218C31.1684 48.4287 31.5794 48.8395 32.0864 48.8395H47.3306C47.8375 48.8395 48.2485 48.4287 48.2485 47.9218V31.6824C48.2485 31.1755 47.8375 30.7646 47.3306 30.7646Z" fill="url(#paint5_linear_211_1467)"/>
<path d="M43.8644 36.7666H35.4127C34.4323 36.7666 33.6375 37.5612 33.6375 38.5414V41.6638C33.6375 42.6439 34.4323 43.4385 35.4127 43.4385H43.8644C44.8449 43.4385 45.6397 42.6439 45.6397 41.6638V38.5414C45.6397 37.5612 44.8449 36.7666 43.8644 36.7666Z" fill="white"/>
<path d="M41.8623 41.1682H42.3635C42.4345 41.1774 42.5067 41.1687 42.5735 41.1429C42.6403 41.1171 42.6996 41.075 42.746 41.0205C42.8158 40.9313 42.8505 40.8197 42.8436 40.7067C42.8492 40.6349 42.8364 40.5628 42.8064 40.4973C42.7764 40.4318 42.7302 40.375 42.6722 40.3322C42.5798 40.2702 42.4691 40.2414 42.3583 40.2505H41.8623V41.1682ZM41.2055 41.7246V38.4177H43.358L43.1681 38.9715H41.8623V39.7046H42.3899C42.6789 39.6785 42.9672 39.7623 43.1971 39.9393C43.3082 40.0376 43.3954 40.16 43.4521 40.2971C43.5087 40.4342 43.5334 40.5824 43.5242 40.7304C43.5314 40.8883 43.4996 41.0455 43.4315 41.1881C43.3634 41.3307 43.2611 41.4543 43.1338 41.548C42.874 41.7015 42.5709 41.7654 42.2712 41.7299L41.2055 41.7246ZM39.301 41.7246V38.9688H38.3461V38.415H40.9998L40.8098 38.9688H39.9657V41.722L39.301 41.7246ZM36.6631 39.7415H37.0377C37.1147 39.7473 37.1921 39.7411 37.2672 39.7231C37.3477 39.7007 37.4179 39.6512 37.466 39.5829C37.5141 39.5147 37.5371 39.4319 37.531 39.3486C37.5407 39.2656 37.519 39.182 37.4702 39.1142C37.4214 39.0464 37.349 38.9992 37.2672 38.982C37.1851 38.9631 37.1007 38.956 37.0166 38.9609H36.6631V39.7415ZM36.6631 40.3138V41.1814H37.1221C37.248 41.1947 37.3743 41.1598 37.4756 41.0838C37.5223 41.0409 37.5588 40.988 37.5825 40.9292C37.6063 40.8703 37.6166 40.807 37.6127 40.7436C37.6149 40.6418 37.5844 40.542 37.5257 40.4588C37.4281 40.3349 37.3068 40.3111 37.101 40.3111L36.6631 40.3138ZM37.7183 39.9657C37.8299 40.0077 37.9341 40.0674 38.0269 40.1424C38.1207 40.2209 38.195 40.3201 38.244 40.4322C38.293 40.5443 38.3153 40.6663 38.3091 40.7885C38.3243 40.9864 38.2687 41.1832 38.1523 41.344C38.0359 41.5048 37.8662 41.6191 37.6734 41.6666C37.5163 41.704 37.3547 41.7191 37.1933 41.7115H36.0037V38.4177H37.0588C37.2272 38.4123 37.3956 38.4282 37.56 38.4651C37.7419 38.5016 37.9053 38.6008 38.0215 38.7454C38.1377 38.89 38.1993 39.0708 38.1957 39.2563C38.1971 39.354 38.1788 39.451 38.1422 39.5416C38.1055 39.6321 38.051 39.7145 37.9821 39.7837C37.9063 39.859 37.8167 39.9189 37.7183 39.9604V39.9657Z" fill="#0A2973"/>
<path opacity="0.2" d="M34.3181 31.9356C34.3181 31.2846 33.7902 30.7568 33.139 30.7568C32.4877 30.7568 31.9598 31.2846 31.9598 31.9356V45.5037C31.9598 46.1547 32.4877 46.6825 33.139 46.6825C33.7902 46.6825 34.3181 46.1547 34.3181 45.5037V31.9356Z" fill="white"/>
<path d="M40.0105 53.1359C41.7646 53.1359 43.1865 51.7143 43.1865 49.9607C43.1865 48.2072 41.7646 46.7856 40.0105 46.7856C38.2565 46.7856 36.8345 48.2072 36.8345 49.9607C36.8345 51.7143 38.2565 53.1359 40.0105 53.1359Z" fill="url(#paint6_linear_211_1467)"/>
<path d="M40.0106 52.3285C41.3057 52.3285 42.3556 51.2788 42.3556 49.9841C42.3556 48.6893 41.3057 47.6396 40.0106 47.6396C38.7154 47.6396 37.6655 48.6893 37.6655 49.9841C37.6655 51.2788 38.7154 52.3285 40.0106 52.3285Z" fill="white"/>
<path d="M39.789 51.3873L41.8175 49.3778C41.8505 49.3461 41.8768 49.308 41.8947 49.2659C41.9127 49.2237 41.9219 49.1784 41.9219 49.1326C41.9219 49.0868 41.9127 49.0415 41.8947 48.9993C41.8768 48.9572 41.8505 48.9191 41.8175 48.8873C41.7545 48.8286 41.6715 48.7959 41.5853 48.7959C41.4992 48.7959 41.4162 48.8286 41.3532 48.8873L39.8048 50.4169C39.7736 50.4489 39.7362 50.4744 39.695 50.4918C39.6538 50.5092 39.6095 50.5182 39.5648 50.5182C39.52 50.5182 39.4757 50.5092 39.4345 50.4918C39.3932 50.4744 39.3559 50.4489 39.3247 50.4169L38.7444 49.8103C38.713 49.7786 38.6756 49.7534 38.6344 49.7362C38.5932 49.719 38.549 49.7102 38.5043 49.7102C38.4597 49.7102 38.4155 49.719 38.3743 49.7362C38.3331 49.7534 38.2957 49.7786 38.2643 49.8103L38.2432 49.8314C38.2111 49.8626 38.1856 49.9 38.1682 49.9412C38.1508 49.9824 38.1418 50.0267 38.1418 50.0714C38.1418 50.1162 38.1508 50.1604 38.1682 50.2017C38.1856 50.2429 38.2111 50.2802 38.2432 50.3114L39.3273 51.3873C39.3896 51.4465 39.4722 51.4795 39.5581 51.4795C39.6441 51.4795 39.7267 51.4465 39.789 51.3873Z" fill="url(#paint7_linear_211_1467)"/>
<path opacity="0.2" d="M39.7072 51.6744C41.0286 51.6744 42.0998 50.6035 42.0998 49.2825C42.0998 47.9615 41.0286 46.8906 39.7072 46.8906C38.3859 46.8906 37.3147 47.9615 37.3147 49.2825C37.3147 50.6035 38.3859 51.6744 39.7072 51.6744Z" fill="white"/>
<path opacity="0.2" d="M41.5375 43.9416C47.4493 41.1631 50.4198 35.0362 48.1722 30.257C45.9247 25.4778 39.3103 23.8559 33.3985 26.6345C27.4868 29.413 24.5163 35.5399 26.7638 40.3191C29.0114 45.0984 35.6258 46.7202 41.5375 43.9416Z" fill="white"/>
<rect x="1" y="1" width="78" height="78" rx="39" stroke="#C4C1DD" stroke-width="2"/>
<defs>
<linearGradient id="paint0_linear_211_1467" x1="24.6714" y1="27.0016" x2="53.9607" y2="51.854" gradientUnits="userSpaceOnUse">
<stop stop-color="#F9F9F9"/>
<stop offset="0.41" stop-color="#D5D5D5"/>
<stop offset="1" stop-color="#9D9D9D"/>
</linearGradient>
<linearGradient id="paint1_linear_211_1467" x1="29.9656" y1="26.176" x2="51.7517" y2="56.1185" gradientUnits="userSpaceOnUse">
<stop stop-color="#F9F9F9"/>
<stop offset="0.18" stop-color="#F1F1F1"/>
<stop offset="0.44" stop-color="#DCDCDC"/>
<stop offset="0.77" stop-color="#B9B9B9"/>
<stop offset="1" stop-color="#9D9D9D"/>
</linearGradient>
<linearGradient id="paint2_linear_211_1467" x1="52.7355" y1="54.0375" x2="29.0361" y2="28.6591" gradientUnits="userSpaceOnUse">
<stop stop-color="#F9F9F9"/>
<stop offset="0.18" stop-color="#F1F1F1"/>
<stop offset="0.44" stop-color="#DCDCDC"/>
<stop offset="0.77" stop-color="#B9B9B9"/>
<stop offset="1" stop-color="#9D9D9D"/>
</linearGradient>
<linearGradient id="paint3_linear_211_1467" x1="30.538" y1="30.7147" x2="50.8492" y2="51.0315" gradientUnits="userSpaceOnUse">
<stop stop-color="#91D1F4"/>
<stop offset="0.16" stop-color="#99D4F5"/>
<stop offset="0.39" stop-color="#AEDDF7"/>
<stop offset="0.68" stop-color="#D1ECFA"/>
<stop offset="1" stop-color="white"/>
</linearGradient>
<linearGradient id="paint4_linear_211_1467" x1="37.0878" y1="28.5549" x2="42.2565" y2="33.7251" gradientUnits="userSpaceOnUse">
<stop stop-color="#0085FF"/>
<stop offset="0.2" stop-color="#007DFF"/>
<stop offset="0.51" stop-color="#0068FF"/>
<stop offset="0.89" stop-color="#0045FF"/>
<stop offset="1" stop-color="#003AFF"/>
</linearGradient>
<linearGradient id="paint5_linear_211_1467" x1="49.1533" y1="39.8021" x2="31.3583" y2="39.8021" gradientUnits="userSpaceOnUse">
<stop stop-color="#003AFF"/>
<stop offset="0.11" stop-color="#0045FF"/>
<stop offset="0.49" stop-color="#0068FF"/>
<stop offset="0.8" stop-color="#007DFF"/>
<stop offset="1" stop-color="#0085FF"/>
</linearGradient>
<linearGradient id="paint6_linear_211_1467" x1="36.2806" y1="46.2292" x2="42.5965" y2="52.5469" gradientUnits="userSpaceOnUse">
<stop stop-color="#0085FF"/>
<stop offset="0.2" stop-color="#007DFF"/>
<stop offset="0.51" stop-color="#0068FF"/>
<stop offset="0.89" stop-color="#0045FF"/>
<stop offset="1" stop-color="#003AFF"/>
</linearGradient>
<linearGradient id="paint7_linear_211_1467" x1="39.2798" y1="48.8214" x2="40.8278" y2="50.4806" gradientUnits="userSpaceOnUse">
<stop stop-color="#0085FF"/>
<stop offset="0.2" stop-color="#007DFF"/>
<stop offset="0.51" stop-color="#0068FF"/>
<stop offset="0.89" stop-color="#0045FF"/>
<stop offset="1" stop-color="#003AFF"/>
</linearGradient>
</defs>
</svg>
