<svg width="80" height="80" viewBox="0 0 80 80" fill="none" xmlns="http://www.w3.org/2000/svg">
<rect x="1" y="1" width="78" height="78" rx="39" fill="white"/>
<path d="M40 59.9943C51.0457 59.9943 60 51.0425 60 39.9999C60 28.9572 51.0457 20.0054 40 20.0054C28.9543 20.0054 20 28.9572 20 39.9999C20 51.0425 28.9543 59.9943 40 59.9943Z" fill="url(#paint0_linear_211_1480)"/>
<path d="M40.0501 59.2299C50.6589 59.2299 59.259 50.6322 59.259 40.0263C59.259 29.4205 50.6589 20.8228 40.0501 20.8228C29.4413 20.8228 20.8412 29.4205 20.8412 40.0263C20.8412 50.6322 29.4413 59.2299 40.0501 59.2299Z" fill="url(#paint1_linear_211_1480)"/>
<path d="M39.8814 56.8805C49.0541 56.8805 56.49 49.4466 56.49 40.2764C56.49 31.1063 49.0541 23.6724 39.8814 23.6724C30.7087 23.6724 23.2727 31.1063 23.2727 40.2764C23.2727 49.4466 30.7087 56.8805 39.8814 56.8805Z" fill="url(#paint2_linear_211_1480)"/>
<path d="M39.9025 55.5571C48.4547 55.5571 55.3877 48.6261 55.3877 40.0762C55.3877 31.5263 48.4547 24.5952 39.9025 24.5952C31.3502 24.5952 24.4172 31.5263 24.4172 40.0762C24.4172 48.6261 31.3502 55.5571 39.9025 55.5571Z" fill="url(#paint3_linear_211_1480)"/>
<path d="M44.2036 28.0386H35.7648C34.7162 28.0386 33.8661 28.8884 33.8661 29.9368V48.1833C33.8661 49.2317 34.7162 50.0815 35.7648 50.0815H44.2036C45.2523 50.0815 46.1024 49.2317 46.1024 48.1833V29.9368C46.1024 28.8884 45.2523 28.0386 44.2036 28.0386Z" fill="url(#paint4_linear_211_1480)"/>
<path d="M43.8107 28.9033H36.1314C35.3886 28.9033 34.7864 29.5053 34.7864 30.2479V45.7447C34.7864 46.4873 35.3886 47.0892 36.1314 47.0892H43.8107C44.5535 47.0892 45.1556 46.4873 45.1556 45.7447V30.2479C45.1556 29.5053 44.5535 28.9033 43.8107 28.9033Z" fill="white"/>
<path d="M40.8729 48.1357H38.8898C38.5155 48.1357 38.212 48.4391 38.212 48.8133V48.8159C38.212 49.1901 38.5155 49.4935 38.8898 49.4935H40.8729C41.2472 49.4935 41.5506 49.1901 41.5506 48.8159V48.8133C41.5506 48.4391 41.2472 48.1357 40.8729 48.1357Z" fill="white"/>
<path d="M44.0453 49.4752C44.5871 49.4752 45.0264 49.0361 45.0264 48.4944C45.0264 47.9528 44.5871 47.5137 44.0453 47.5137C43.5035 47.5137 43.0643 47.9528 43.0643 48.4944C43.0643 49.0361 43.5035 49.4752 44.0453 49.4752Z" fill="white"/>
<path d="M35.8967 49.4752C36.4385 49.4752 36.8777 49.0361 36.8777 48.4944C36.8777 47.9528 36.4385 47.5137 35.8967 47.5137C35.3549 47.5137 34.9156 47.9528 34.9156 48.4944C34.9156 49.0361 35.3549 49.4752 35.8967 49.4752Z" fill="white"/>
<path d="M40.0106 53.1292C41.7641 53.1292 43.1857 51.7081 43.1857 49.955C43.1857 48.2019 41.7641 46.7808 40.0106 46.7808C38.257 46.7808 36.8354 48.2019 36.8354 49.955C36.8354 51.7081 38.257 53.1292 40.0106 53.1292Z" fill="url(#paint5_linear_211_1480)"/>
<path d="M40.0105 52.3252C41.3053 52.3252 42.355 51.2759 42.355 49.9815C42.355 48.687 41.3053 47.6377 40.0105 47.6377C38.7158 47.6377 37.6661 48.687 37.6661 49.9815C37.6661 51.2759 38.7158 52.3252 40.0105 52.3252Z" fill="white"/>
<path d="M39.7759 51.3837L41.8039 49.3721C41.8372 49.3408 41.8637 49.303 41.8818 49.2611C41.9 49.2192 41.9093 49.174 41.9093 49.1283C41.9093 49.0826 41.9 49.0374 41.8818 48.9954C41.8637 48.9535 41.8372 48.9157 41.8039 48.8844C41.7412 48.8251 41.6582 48.792 41.5718 48.792C41.4855 48.792 41.4024 48.8251 41.3398 48.8844L39.7918 50.4135C39.7604 50.4452 39.723 50.4704 39.6818 50.4876C39.6406 50.5048 39.5964 50.5136 39.5518 50.5136C39.5071 50.5136 39.4629 50.5048 39.4218 50.4876C39.3806 50.4704 39.3432 50.4452 39.3118 50.4135L38.7316 49.8071C38.7002 49.7754 38.6629 49.7502 38.6217 49.733C38.5805 49.7158 38.5363 49.707 38.4917 49.707C38.447 49.707 38.4028 49.7158 38.3616 49.733C38.3204 49.7502 38.2831 49.7754 38.2517 49.8071L38.2306 49.8282C38.1988 49.8598 38.1735 49.8974 38.1563 49.9388C38.1391 49.9802 38.1302 50.0246 38.1302 50.0695C38.1302 50.1143 38.1391 50.1587 38.1563 50.2001C38.1735 50.2415 38.1988 50.2791 38.2306 50.3107L39.3144 51.3863C39.3776 51.444 39.4602 51.4757 39.5457 51.4752C39.6312 51.4747 39.7134 51.4421 39.7759 51.3837Z" fill="url(#paint6_linear_211_1480)"/>
<path opacity="0.2" d="M39.71 51.6711C41.031 51.6711 42.1019 50.6005 42.1019 49.2799C42.1019 47.9593 41.031 46.8887 39.71 46.8887C38.389 46.8887 37.3181 47.9593 37.3181 49.2799C37.3181 50.6005 38.389 51.6711 39.71 51.6711Z" fill="white"/>
<path opacity="0.2" d="M41.7308 43.8948C47.641 41.117 50.6106 34.9919 48.3637 30.2139C46.1168 25.436 39.5042 23.8146 33.5941 26.5924C27.6839 29.3702 24.7143 35.4953 26.9612 40.2733C29.2081 45.0512 35.8207 46.6726 41.7308 43.8948Z" fill="white"/>
<rect x="1" y="1" width="78" height="78" rx="39" stroke="#C4C1DD" stroke-width="2"/>
<defs>
<linearGradient id="paint0_linear_211_1480" x1="24.6756" y1="27.0024" x2="53.9568" y2="51.8505" gradientUnits="userSpaceOnUse">
<stop stop-color="#F9F9F9"/>
<stop offset="0.41" stop-color="#D5D5D5"/>
<stop offset="1" stop-color="#9D9D9D"/>
</linearGradient>
<linearGradient id="paint1_linear_211_1480" x1="29.9684" y1="26.1799" x2="51.7485" y2="56.1141" gradientUnits="userSpaceOnUse">
<stop stop-color="#F9F9F9"/>
<stop offset="0.18" stop-color="#F1F1F1"/>
<stop offset="0.44" stop-color="#DCDCDC"/>
<stop offset="0.77" stop-color="#B9B9B9"/>
<stop offset="1" stop-color="#9D9D9D"/>
</linearGradient>
<linearGradient id="paint2_linear_211_1480" x1="52.7347" y1="54.0306" x2="29.0392" y2="28.6618" gradientUnits="userSpaceOnUse">
<stop stop-color="#F9F9F9"/>
<stop offset="0.18" stop-color="#F1F1F1"/>
<stop offset="0.44" stop-color="#DCDCDC"/>
<stop offset="0.77" stop-color="#B9B9B9"/>
<stop offset="1" stop-color="#9D9D9D"/>
</linearGradient>
<linearGradient id="paint3_linear_211_1480" x1="30.5407" y1="30.7143" x2="50.8462" y2="51.0281" gradientUnits="userSpaceOnUse">
<stop stop-color="#91D1F4"/>
<stop offset="0.16" stop-color="#99D4F5"/>
<stop offset="0.39" stop-color="#AEDDF7"/>
<stop offset="0.68" stop-color="#D1ECFA"/>
<stop offset="1" stop-color="white"/>
</linearGradient>
<linearGradient id="paint4_linear_211_1480" x1="46.7511" y1="39.0587" x2="34.0006" y2="39.0587" gradientUnits="userSpaceOnUse">
<stop stop-color="#003AFF"/>
<stop offset="0.11" stop-color="#0045FF"/>
<stop offset="0.49" stop-color="#0068FF"/>
<stop offset="0.8" stop-color="#007DFF"/>
<stop offset="1" stop-color="#0085FF"/>
</linearGradient>
<linearGradient id="paint5_linear_211_1480" x1="36.2817" y1="46.2271" x2="42.5958" y2="52.543" gradientUnits="userSpaceOnUse">
<stop stop-color="#0085FF"/>
<stop offset="0.2" stop-color="#007DFF"/>
<stop offset="0.51" stop-color="#0068FF"/>
<stop offset="0.89" stop-color="#0045FF"/>
<stop offset="1" stop-color="#003AFF"/>
</linearGradient>
<linearGradient id="paint6_linear_211_1480" x1="39.2802" y1="48.8158" x2="40.8277" y2="50.4772" gradientUnits="userSpaceOnUse">
<stop stop-color="#0085FF"/>
<stop offset="0.2" stop-color="#007DFF"/>
<stop offset="0.51" stop-color="#0068FF"/>
<stop offset="0.89" stop-color="#0045FF"/>
<stop offset="1" stop-color="#003AFF"/>
</linearGradient>
</defs>
</svg>
