<svg width="153" height="25" viewBox="0 0 153 25" fill="none" xmlns="http://www.w3.org/2000/svg">
<g clip-path="url(#clip0_190_462)">
<path d="M34.064 5.82628H6.06395L8.08107 0H36.0812L34.064 5.82628ZM33.0555 8.73943H5.04279L3.02567 14.5657H31.0258L33.0555 8.73943ZM30.0298 17.4524H2.01712L0 23.2787H27.9749L30.0298 17.4524Z" fill="#009FDF"/>
</g>
<path d="M49.4 20V5.6H55.11C56.0833 5.6 56.88 5.79667 57.5 6.19C58.1267 6.57667 58.59 7.07333 58.89 7.68C59.1967 8.28667 59.35 8.91333 59.35 9.56C59.35 10.3533 59.16 11.0267 58.78 11.58C58.4067 12.1333 57.8967 12.5067 57.25 12.7V12.2C58.1567 12.4067 58.8433 12.8367 59.31 13.49C59.7833 14.1433 60.02 14.8867 60.02 15.72C60.02 16.5733 59.8567 17.32 59.53 17.96C59.2033 18.6 58.7167 19.1 58.07 19.46C57.43 19.82 56.6367 20 55.69 20H49.4ZM51.84 17.73H55.39C55.81 17.73 56.1867 17.6467 56.52 17.48C56.8533 17.3067 57.1133 17.0667 57.3 16.76C57.4933 16.4467 57.59 16.0767 57.59 15.65C57.59 15.2633 57.5067 14.9167 57.34 14.61C57.1733 14.3033 56.93 14.06 56.61 13.88C56.29 13.6933 55.9067 13.6 55.46 13.6H51.84V17.73ZM51.84 11.35H55.08C55.4267 11.35 55.7367 11.2833 56.01 11.15C56.2833 11.0167 56.5 10.82 56.66 10.56C56.82 10.3 56.9 9.98 56.9 9.6C56.9 9.1 56.74 8.68333 56.42 8.35C56.1 8.01667 55.6533 7.85 55.08 7.85H51.84V11.35ZM65.0866 20V7.86H60.4266V5.6H72.1566V7.86H67.4966V20H65.0866ZM73.7555 20V5.6H83.3855V7.86H76.1655V10.96H79.7055C79.8388 10.96 80.0155 10.9667 80.2355 10.98C80.4621 10.9867 80.6688 11 80.8555 11.02C81.6621 11.1133 82.3355 11.37 82.8755 11.79C83.4221 12.21 83.8321 12.74 84.1055 13.38C84.3855 14.02 84.5255 14.72 84.5255 15.48C84.5255 16.24 84.3888 16.9433 84.1155 17.59C83.8421 18.23 83.4321 18.76 82.8855 19.18C82.3455 19.5933 81.6688 19.8467 80.8555 19.94C80.6688 19.96 80.4655 19.9767 80.2455 19.99C80.0255 19.9967 79.8455 20 79.7055 20H73.7555ZM76.1655 17.74H79.6055C79.7388 17.74 79.8888 17.7333 80.0555 17.72C80.2221 17.7067 80.3755 17.6867 80.5155 17.66C81.1155 17.5333 81.5288 17.2533 81.7555 16.82C81.9821 16.3867 82.0955 15.94 82.0955 15.48C82.0955 15.0133 81.9821 14.5667 81.7555 14.14C81.5288 13.7067 81.1155 13.4267 80.5155 13.3C80.3755 13.2667 80.2221 13.2467 80.0555 13.24C79.8888 13.2267 79.7388 13.22 79.6055 13.22H76.1655V17.74ZM96.6228 20.3C95.1828 20.3 93.9495 19.9867 92.9228 19.36C91.8961 18.7267 91.1061 17.8467 90.5528 16.72C90.0061 15.5933 89.7328 14.2867 89.7328 12.8C89.7328 11.3133 90.0061 10.0067 90.5528 8.88C91.1061 7.75333 91.8961 6.87667 92.9228 6.25C93.9495 5.61667 95.1828 5.3 96.6228 5.3C98.2828 5.3 99.6661 5.71667 100.773 6.55C101.879 7.37667 102.656 8.49333 103.103 9.9L100.673 10.57C100.393 9.63 99.9161 8.89667 99.2428 8.37C98.5695 7.83667 97.6961 7.57 96.6228 7.57C95.6561 7.57 94.8495 7.78667 94.2028 8.22C93.5628 8.65333 93.0795 9.26333 92.7528 10.05C92.4328 10.83 92.2695 11.7467 92.2628 12.8C92.2628 13.8533 92.4228 14.7733 92.7428 15.56C93.0695 16.34 93.5561 16.9467 94.2028 17.38C94.8495 17.8133 95.6561 18.03 96.6228 18.03C97.6961 18.03 98.5695 17.7633 99.2428 17.23C99.9161 16.6967 100.393 15.9633 100.673 15.03L103.103 15.7C102.656 17.1067 101.879 18.2267 100.773 19.06C99.6661 19.8867 98.2828 20.3 96.6228 20.3ZM110.488 20.3C109.435 20.3 108.552 20.05 107.838 19.55C107.125 19.05 106.588 18.37 106.228 17.51C105.868 16.6433 105.688 15.6733 105.688 14.6C105.688 13.5133 105.868 12.54 106.228 11.68C106.588 10.82 107.115 10.1433 107.808 9.65C108.508 9.15 109.372 8.9 110.398 8.9C111.418 8.9 112.302 9.15 113.048 9.65C113.802 10.1433 114.385 10.82 114.798 11.68C115.212 12.5333 115.418 13.5067 115.418 14.6C115.418 15.68 115.215 16.65 114.808 17.51C114.402 18.37 113.828 19.05 113.088 19.55C112.348 20.05 111.482 20.3 110.488 20.3ZM105.278 24.8V9.2H107.408V16.78H107.708V24.8H105.278ZM110.118 18.14C110.745 18.14 111.262 17.9833 111.668 17.67C112.075 17.3567 112.375 16.9333 112.568 16.4C112.768 15.86 112.868 15.26 112.868 14.6C112.868 13.9467 112.768 13.3533 112.568 12.82C112.368 12.28 112.058 11.8533 111.638 11.54C111.218 11.22 110.685 11.06 110.038 11.06C109.425 11.06 108.925 11.21 108.538 11.51C108.152 11.8033 107.865 12.2167 107.678 12.75C107.498 13.2767 107.408 13.8933 107.408 14.6C107.408 15.3 107.498 15.9167 107.678 16.45C107.865 16.9833 108.155 17.4 108.548 17.7C108.948 17.9933 109.472 18.14 110.118 18.14ZM122.533 20.3C121.439 20.3 120.479 20.0633 119.653 19.59C118.826 19.1167 118.179 18.46 117.713 17.62C117.253 16.78 117.023 15.8133 117.023 14.72C117.023 13.54 117.249 12.5167 117.703 11.65C118.156 10.7767 118.786 10.1 119.593 9.62C120.399 9.14 121.333 8.9 122.393 8.9C123.513 8.9 124.463 9.16333 125.243 9.69C126.029 10.21 126.613 10.9467 126.993 11.9C127.373 12.8533 127.516 13.9767 127.423 15.27H125.033V14.39C125.026 13.2167 124.819 12.36 124.413 11.82C124.006 11.28 123.366 11.01 122.493 11.01C121.506 11.01 120.773 11.3167 120.293 11.93C119.813 12.5367 119.573 13.4267 119.573 14.6C119.573 15.6933 119.813 16.54 120.293 17.14C120.773 17.74 121.473 18.04 122.393 18.04C122.986 18.04 123.496 17.91 123.923 17.65C124.356 17.3833 124.689 17 124.923 16.5L127.303 17.22C126.889 18.1933 126.249 18.95 125.383 19.49C124.523 20.03 123.573 20.3 122.533 20.3ZM118.813 15.27V13.45H126.243V15.27H118.813ZM128.854 22.4V18.11C129.441 18.11 129.857 17.91 130.104 17.51C130.351 17.11 130.547 16.4167 130.694 15.43C130.787 14.8433 130.864 14.2233 130.924 13.57C130.984 12.9167 131.034 12.2267 131.074 11.5C131.121 10.7733 131.161 10.0067 131.194 9.2H139.234V18.11H140.324V22.4H138.044V20H131.124V22.4H128.854ZM132.084 18.11H136.834V11.09H133.304C133.284 11.49 133.261 11.9 133.234 12.32C133.207 12.7333 133.177 13.1467 133.144 13.56C133.111 13.9733 133.074 14.37 133.034 14.75C133.001 15.1233 132.961 15.47 132.914 15.79C132.841 16.35 132.751 16.81 132.644 17.17C132.537 17.53 132.351 17.8433 132.084 18.11ZM145.35 20.3C144.57 20.3 143.91 20.1533 143.37 19.86C142.83 19.56 142.42 19.1633 142.14 18.67C141.866 18.1767 141.73 17.6333 141.73 17.04C141.73 16.52 141.816 16.0533 141.99 15.64C142.163 15.22 142.43 14.86 142.79 14.56C143.15 14.2533 143.616 14.0033 144.19 13.81C144.623 13.67 145.13 13.5433 145.71 13.43C146.296 13.3167 146.93 13.2133 147.61 13.12C148.296 13.02 149.013 12.9133 149.76 12.8L148.9 13.29C148.906 12.5433 148.74 11.9933 148.4 11.64C148.06 11.2867 147.486 11.11 146.68 11.11C146.193 11.11 145.723 11.2233 145.27 11.45C144.816 11.6767 144.5 12.0667 144.32 12.62L142.12 11.93C142.386 11.0167 142.893 10.2833 143.64 9.73C144.393 9.17667 145.406 8.9 146.68 8.9C147.64 8.9 148.483 9.05667 149.21 9.37C149.943 9.68333 150.486 10.1967 150.84 10.91C151.033 11.29 151.15 11.68 151.19 12.08C151.23 12.4733 151.25 12.9033 151.25 13.37V20H149.14V17.66L149.49 18.04C149.003 18.82 148.433 19.3933 147.78 19.76C147.133 20.12 146.323 20.3 145.35 20.3ZM145.83 18.38C146.376 18.38 146.843 18.2833 147.23 18.09C147.616 17.8967 147.923 17.66 148.15 17.38C148.383 17.1 148.54 16.8367 148.62 16.59C148.746 16.2833 148.816 15.9333 148.83 15.54C148.85 15.14 148.86 14.8167 148.86 14.57L149.6 14.79C148.873 14.9033 148.25 15.0033 147.73 15.09C147.21 15.1767 146.763 15.26 146.39 15.34C146.016 15.4133 145.686 15.4967 145.4 15.59C145.12 15.69 144.883 15.8067 144.69 15.94C144.496 16.0733 144.346 16.2267 144.24 16.4C144.14 16.5733 144.09 16.7767 144.09 17.01C144.09 17.2767 144.156 17.5133 144.29 17.72C144.423 17.92 144.616 18.08 144.87 18.2C145.13 18.32 145.45 18.38 145.83 18.38Z" fill="#0D69F2"/>
<defs>
<clipPath id="clip0_190_462">
<rect width="36" height="23" fill="white"/>
</clipPath>
</defs>
</svg>
