<svg width="80" height="80" viewBox="0 0 80 80" fill="none" xmlns="http://www.w3.org/2000/svg">
<rect x="1" y="1" width="78" height="78" rx="39" fill="white"/>
<path d="M44.0576 59.7947H35.9505C35.7013 59.7949 35.4553 59.7376 35.2318 59.6273C35.0084 59.5169 34.8134 59.3564 34.662 59.1584C34.5107 58.9603 34.4071 58.73 34.3593 58.4854C34.3115 58.2408 34.3209 57.9884 34.3866 57.748C34.6951 56.6069 35.0056 55.4659 35.3181 54.3248C35.4108 53.981 35.6143 53.6774 35.897 53.461C36.1798 53.2446 36.526 53.1275 36.8821 53.1279H42.9285C43.2696 53.1279 43.6021 53.2355 43.8786 53.4353C44.1551 53.6352 44.3615 53.9171 44.4685 54.2411C44.8435 55.3821 45.2192 56.5232 45.5956 57.6642C45.6765 57.9077 45.6984 58.167 45.6595 58.4206C45.6205 58.6742 45.5219 58.915 45.3717 59.123C45.2215 59.3311 45.0241 59.5004 44.7956 59.6172C44.5671 59.734 44.3142 59.7948 44.0576 59.7947Z" fill="url(#paint0_linear_211_1440)"/>
<path d="M42.3001 54.7797V39.5091C42.3001 38.2498 41.2797 37.229 40.021 37.229C38.7623 37.229 37.7419 38.2498 37.7419 39.5091V54.7797C37.7419 56.0389 38.7623 57.0598 40.021 57.0598C41.2797 57.0598 42.3001 56.0389 42.3001 54.7797Z" fill="url(#paint1_linear_211_1440)"/>
<path d="M54.7897 29.8183C54.5808 29.7935 54.388 29.6933 54.2477 29.5364C54.1074 29.3796 54.0292 29.1769 54.0277 28.9665V26.7402C54.0272 26.5125 53.9364 26.2944 53.7752 26.1336C53.614 25.9728 53.3956 25.8824 53.1679 25.8824H47.9434C47.781 25.8815 47.6221 25.8352 47.4846 25.7488C45.2562 24.3453 42.6764 23.6006 40.0429 23.6006C37.4093 23.6006 34.8295 24.3453 32.6011 25.7488C32.4636 25.8352 32.3047 25.8815 32.1423 25.8824H26.9178C26.6903 25.8824 26.4721 25.9728 26.3112 26.1337C26.1504 26.2946 26.06 26.5127 26.06 26.7402V28.9824C26.0581 29.1928 25.9797 29.3952 25.8395 29.5519C25.6993 29.7087 25.5068 29.809 25.2979 29.8342C23.7746 30.0102 22.3769 30.7642 21.3933 31.9407C20.4096 33.1172 19.9152 34.6263 20.0119 36.1568C20.1087 37.6872 20.7892 39.1221 21.9131 40.1654C23.0371 41.2087 24.5186 41.7807 26.052 41.7634C26.2301 41.761 26.4045 41.814 26.551 41.9152C26.6976 42.0163 26.809 42.1606 26.8699 42.328C27.1672 43.1467 27.5398 43.936 27.983 44.6859C27.9834 44.6912 27.9834 44.6965 27.983 44.7018C28.0648 44.8395 28.1486 44.9771 28.2364 45.1008C28.2483 45.1207 28.2603 45.1427 28.2743 45.1626L28.4019 45.3621C29.8405 47.5114 31.847 49.2196 34.1982 50.2968C36.5495 51.3741 39.1534 51.7782 41.7206 51.4642C44.2878 51.1502 46.7175 50.1304 48.7399 48.5182C50.7622 46.906 52.2977 44.7646 53.1759 42.3319C53.2378 42.1647 53.3497 42.0206 53.4964 41.9192C53.6431 41.8179 53.8175 41.7642 53.9958 41.7654C55.5216 41.7669 56.9906 41.1868 58.1038 40.1433C59.217 39.0999 59.8907 37.6714 59.9878 36.1487C60.0849 34.626 59.5981 33.1235 58.6265 31.9471C57.6549 30.7706 56.2715 30.0087 54.7578 29.8163L54.7897 29.8183ZM26.052 39.6608C25.1142 39.6613 24.2079 39.3229 23.4998 38.7081C22.7917 38.0933 22.3296 37.2434 22.1985 36.3148C22.0673 35.3863 22.2761 34.4416 22.7862 33.6548C23.2963 32.8679 24.0736 32.2918 24.9748 32.0326C25.1019 31.9981 25.2352 31.9935 25.3643 32.0191C25.4935 32.0447 25.615 32.0999 25.7193 32.1802C25.8236 32.2606 25.9079 32.364 25.9656 32.4823C26.0233 32.6007 26.0529 32.7307 26.052 32.8624V37.5862C26.0518 38.2779 26.1025 38.9686 26.2036 39.6529C26.1617 39.6549 26.1098 39.6608 26.052 39.6608ZM54.0197 39.6608C53.9679 39.6608 53.916 39.6608 53.8661 39.6608C53.9678 38.976 54.0192 38.2846 54.0197 37.5922V32.8564C54.0188 32.7248 54.0484 32.5947 54.1061 32.4763C54.1638 32.358 54.2481 32.2546 54.3525 32.1742C54.4568 32.0939 54.5782 32.0387 54.7074 32.0131C54.8365 31.9875 54.9699 31.9921 55.097 32.0266C55.9991 32.286 56.7772 32.8625 57.288 33.6501C57.7988 34.4377 58.0079 35.3833 57.8767 36.3128C57.7456 37.2423 57.2831 38.0932 56.5744 38.7088C55.8657 39.3243 54.9585 39.6631 54.0197 39.6628V39.6608Z" fill="url(#paint2_linear_211_1440)"/>
<path opacity="0.2" d="M54.0357 27.5H26.06V29.036H54.0357V27.5Z" fill="black"/>
<path d="M53.8721 20.2051H26.2774C24.0398 20.2051 22.2259 22.0186 22.2259 24.2556C22.2259 26.4927 24.0398 28.3061 26.2774 28.3061H53.8721C56.1097 28.3061 57.9237 26.4927 57.9237 24.2556C57.9237 22.0186 56.1097 20.2051 53.8721 20.2051Z" fill="url(#paint3_linear_211_1440)"/>
<path d="M41.2487 33.3711L42.0786 35.0527C42.1728 35.2424 42.3118 35.4063 42.4834 35.5304C42.6551 35.6545 42.8544 35.7349 43.064 35.7649L44.9193 36.0362C45.1608 36.0715 45.3877 36.1736 45.5743 36.3311C45.7609 36.4885 45.8996 36.6951 45.975 36.9273C46.0503 37.1595 46.0592 37.4082 46.0006 37.6452C45.942 37.8822 45.8183 38.0981 45.6434 38.2684L44.3009 39.577C44.1491 39.7249 44.0356 39.9076 43.9703 40.1092C43.9049 40.3108 43.8897 40.5252 43.9258 40.734L44.243 42.5833C44.2841 42.8239 44.257 43.0712 44.1649 43.2973C44.0728 43.5234 43.9193 43.7192 43.7218 43.8626C43.5242 44.0059 43.2905 44.0912 43.047 44.1087C42.8035 44.1263 42.56 44.0753 42.3439 43.9617L40.6842 43.09C40.4964 42.9907 40.2872 42.9389 40.0748 42.9389C39.8624 42.9389 39.6532 42.9907 39.4653 43.09L37.8056 43.9617C37.5896 44.0753 37.3461 44.1263 37.1026 44.1087C36.8591 44.0912 36.6254 44.0059 36.4278 43.8626C36.2302 43.7192 36.0767 43.5234 35.9846 43.2973C35.8925 43.0712 35.8655 42.8239 35.9065 42.5833L36.2257 40.734C36.2619 40.5252 36.2466 40.3108 36.1813 40.1092C36.1159 39.9076 36.0025 39.7249 35.8507 39.577L34.5082 38.2684C34.3334 38.0983 34.2096 37.8828 34.1508 37.646C34.092 37.4093 34.1005 37.1609 34.1754 36.9288C34.2503 36.6967 34.3885 36.4901 34.5746 36.3324C34.7606 36.1746 34.987 36.0721 35.2283 36.0362L37.0855 35.7649C37.2954 35.7347 37.4948 35.654 37.6664 35.5295C37.8381 35.4051 37.977 35.2408 38.071 35.0507L38.9008 33.3711C39.0088 33.1518 39.176 32.9672 39.3834 32.8381C39.5909 32.709 39.8304 32.6406 40.0748 32.6406C40.3191 32.6406 40.5586 32.709 40.7661 32.8381C40.9736 32.9672 41.1408 33.1518 41.2487 33.3711Z" fill="url(#paint4_linear_211_1440)"/>
<path d="M41.1231 33.8995L41.8652 35.4016C41.949 35.572 42.0731 35.7194 42.2267 35.831C42.3804 35.9426 42.559 36.015 42.7469 36.0419L44.4047 36.2833C44.6207 36.3145 44.8238 36.4055 44.9908 36.5462C45.1578 36.6868 45.282 36.8714 45.3495 37.079C45.417 37.2866 45.425 37.509 45.3726 37.7209C45.3202 37.9329 45.2095 38.1259 45.053 38.2782L43.8561 39.4491C43.7198 39.5812 43.6179 39.7445 43.5591 39.925C43.5004 40.1054 43.4866 40.2975 43.5189 40.4845L43.8022 42.1362C43.8386 42.3512 43.8142 42.5722 43.7318 42.7741C43.6494 42.976 43.5122 43.1509 43.3357 43.2791C43.1593 43.4072 42.9505 43.4835 42.733 43.4994C42.5155 43.5153 42.2978 43.4701 42.1046 43.369L40.6145 42.589C40.4466 42.5016 40.2601 42.456 40.0709 42.456C39.8816 42.456 39.6951 42.5016 39.5273 42.589L38.0431 43.369C37.8499 43.4701 37.6322 43.5153 37.4147 43.4994C37.1972 43.4835 36.9884 43.4072 36.812 43.2791C36.6355 43.1509 36.4983 42.976 36.4159 42.7741C36.3335 42.5722 36.3091 42.3512 36.3455 42.1362L36.6248 40.4845C36.6571 40.2975 36.6433 40.1054 36.5846 39.925C36.5258 39.7445 36.4239 39.5812 36.2876 39.4491L35.0907 38.2782C34.9342 38.1259 34.8235 37.9329 34.7711 37.7209C34.7187 37.509 34.7267 37.2866 34.7942 37.079C34.8617 36.8714 34.9859 36.6868 35.1529 36.5462C35.3199 36.4055 35.523 36.3145 35.739 36.2833L37.3968 36.0419C37.5847 36.015 37.7633 35.9426 37.917 35.831C38.0706 35.7194 38.1947 35.572 38.2785 35.4016L39.0186 33.8995C39.1148 33.7023 39.2645 33.5362 39.4505 33.42C39.6366 33.3038 39.8515 33.2422 40.0709 33.2422C40.2902 33.2422 40.5052 33.3038 40.6912 33.42C40.8772 33.5362 41.0269 33.7023 41.1231 33.8995Z" fill="white"/>
<path d="M43.5688 20.2051V30.8994H43.5788L47.6243 26.8539L51.6718 30.8994V20.2051H43.5688Z" fill="url(#paint5_linear_211_1440)"/>
<path d="M43.5688 20.2051V28.9644L47.6143 24.9169L51.6599 28.9644V20.2051H43.5688Z" fill="white"/>
<path opacity="0.2" d="M47.6243 24.917C47.6748 24.9649 46.323 26.5149 43.5688 29.567V28.9825C46.2259 26.2283 47.5778 24.8732 47.6243 24.917Z" fill="black"/>
<path opacity="0.2" d="M40.8777 20.957H26.848C26.4965 20.957 26.2116 21.2419 26.2116 21.5934C26.2116 21.9448 26.4965 22.2297 26.848 22.2297H40.8777C41.2292 22.2297 41.5141 21.9448 41.5141 21.5934C41.5141 21.2419 41.2292 20.957 40.8777 20.957Z" fill="white"/>
<rect x="1" y="1" width="78" height="78" rx="39" stroke="#C4C1DD" stroke-width="2"/>
<defs>
<linearGradient id="paint0_linear_211_1440" x1="35.3142" y1="52.711" x2="43.5309" y2="60.1817" gradientUnits="userSpaceOnUse">
<stop stop-color="#F9E88E"/>
<stop offset="0.04" stop-color="#F9E589"/>
<stop offset="0.46" stop-color="#F4C75F"/>
<stop offset="0.79" stop-color="#F2B545"/>
<stop offset="0.99" stop-color="#F1AE3B"/>
</linearGradient>
<linearGradient id="paint1_linear_211_1440" x1="37.0457" y1="44.957" x2="44.6181" y2="50.5247" gradientUnits="userSpaceOnUse">
<stop stop-color="#F9E88E"/>
<stop offset="0.19" stop-color="#F8E386"/>
<stop offset="0.47" stop-color="#F6D471"/>
<stop offset="0.82" stop-color="#F3BB4E"/>
<stop offset="0.99" stop-color="#F1AE3B"/>
</linearGradient>
<linearGradient id="paint2_linear_211_1440" x1="40.0458" y1="51.7317" x2="40.0458" y2="20.9273" gradientUnits="userSpaceOnUse">
<stop offset="0.01" stop-color="#F1AE3B"/>
<stop offset="0.18" stop-color="#F3BB4E"/>
<stop offset="0.53" stop-color="#F6D471"/>
<stop offset="0.81" stop-color="#F8E386"/>
<stop offset="1" stop-color="#F9E88E"/>
</linearGradient>
<linearGradient id="paint3_linear_211_1440" x1="40.0738" y1="14.1467" x2="40.0738" y2="29.14" gradientUnits="userSpaceOnUse">
<stop stop-color="#F9E88E"/>
<stop offset="0.19" stop-color="#F8E386"/>
<stop offset="0.47" stop-color="#F6D471"/>
<stop offset="0.82" stop-color="#F3BB4E"/>
<stop offset="0.99" stop-color="#F1AE3B"/>
</linearGradient>
<linearGradient id="paint4_linear_211_1440" x1="34.1092" y1="38.3781" x2="46.0404" y2="38.3781" gradientUnits="userSpaceOnUse">
<stop stop-color="#0085FF"/>
<stop offset="1" stop-color="#003AFF"/>
</linearGradient>
<linearGradient id="paint5_linear_211_1440" x1="47.6203" y1="20.9172" x2="47.6203" y2="31.0231" gradientUnits="userSpaceOnUse">
<stop stop-color="#0085FF"/>
<stop offset="1" stop-color="#003AFF"/>
</linearGradient>
</defs>
</svg>
